<svg xmlns="http://www.w3.org/2000/svg" xmlns:xlink="http://www.w3.org/1999/xlink" width="1080" zoomAndPan="magnify" viewBox="0 0 810 809.999993" height="1080" preserveAspectRatio="xMidYMid meet" version="1.0"><defs><g/><clipPath id="451c870dbf"><path d="M 113 118 L 418 118 L 418 697 L 113 697 Z M 113 118 " clip-rule="nonzero"/></clipPath><clipPath id="a34b62658e"><path d="M 100.191406 682.894531 L 128.113281 104.570312 L 417.277344 118.53125 L 389.351562 696.859375 Z M 100.191406 682.894531 " clip-rule="nonzero"/></clipPath><clipPath id="303910bf67"><path d="M 100.191406 682.894531 L 128.113281 104.570312 L 417.277344 118.53125 L 389.351562 696.859375 Z M 100.191406 682.894531 " clip-rule="nonzero"/></clipPath><clipPath id="940457957a"><path d="M 100.191406 682.894531 L 128.113281 104.570312 L 417.277344 118.53125 L 389.351562 696.859375 Z M 100.191406 682.894531 " clip-rule="nonzero"/></clipPath></defs><rect x="-81" width="972" fill="#ffffff" y="-80.999999" height="971.999992" fill-opacity="1"/><rect x="-81" width="972" fill="#fff6ed" y="-80.999999" height="971.999992" fill-opacity="1"/><g clip-path="url(#451c870dbf)"><g clip-path="url(#a34b62658e)"><g clip-path="url(#303910bf67)"><g clip-path="url(#940457957a)"><path fill="#231f20" d="M 417.21875 118.601562 L 416.953125 124.078125 C 260.554688 116.527344 127.179688 237.613281 119.628906 393.996094 C 112.078125 550.382812 233.164062 683.765625 389.566406 691.316406 L 389.300781 696.792969 C 312.082031 693.066406 240.925781 659.496094 188.960938 602.246094 C 136.996094 545.011719 110.421875 470.960938 114.152344 393.734375 C 117.882812 316.503906 151.464844 245.371094 208.699219 193.40625 C 265.9375 141.441406 340 114.871094 417.21875 118.601562 Z M 417.21875 118.601562 " fill-opacity="1" fill-rule="nonzero"/></g></g></g></g><g fill="#000000" fill-opacity="1"><g transform="translate(415.728651, 144.444559)"><g/></g></g><g fill="#000000" fill-opacity="1"><g transform="translate(424.67451, 144.985501)"><g/></g></g><g fill="#000000" fill-opacity="1"><g transform="translate(433.377788, 145.641109)"><g><path d="M 12.234375 -21.1875 L 3.515625 -22.5 L 3.859375 -24.765625 L 23.890625 -21.75 L 23.546875 -19.484375 L 14.84375 -20.796875 L 11.46875 1.71875 L 8.859375 1.328125 Z M 12.234375 -21.1875 "/></g></g></g><g fill="#000000" fill-opacity="1"><g transform="translate(452.666536, 148.296406)"><g><path d="M 30.234375 -18.4375 L 24.3125 5.921875 L 21.765625 5.296875 L 24.5 -5.9375 L 9.28125 -9.640625 L 6.546875 1.59375 L 3.96875 0.96875 L 9.890625 -23.390625 L 12.46875 -22.765625 L 9.828125 -11.90625 L 25.046875 -8.203125 L 27.6875 -19.0625 Z M 30.234375 -18.4375 "/></g></g></g><g fill="#000000" fill-opacity="1"><g transform="translate(480.002643, 155.259176)"><g><path d="M 11.546875 -22.609375 L 14.078125 -21.796875 L 6.40625 2.0625 L 3.875 1.25 Z M 11.546875 -22.609375 "/></g></g></g><g fill="#000000" fill-opacity="1"><g transform="translate(489.585029, 157.954855)"><g><path d="M 32.5625 -13.90625 L 23.203125 9.34375 L 21.1875 8.53125 L 13.84375 -16.34375 L 6.25 2.515625 L 3.78125 1.53125 L 13.140625 -21.71875 L 15.171875 -20.90625 L 22.546875 4 L 30.140625 -14.875 Z M 32.5625 -13.90625 "/></g></g></g><g fill="#000000" fill-opacity="1"><g transform="translate(515.457562, 168.411465)"><g><path d="M 15.953125 -4.953125 L 9.015625 -2.71875 L 5.96875 3.125 L 3.609375 1.890625 L 15.21875 -20.328125 L 17.578125 -19.09375 L 10.5625 -5.671875 L 30.609375 -12.296875 L 33.3125 -10.875 L 18.4375 -5.828125 L 22.359375 11.6875 L 19.578125 10.234375 Z M 15.953125 -4.953125 "/></g></g></g><g fill="#000000" fill-opacity="1"><g transform="translate(537.046059, 179.584474)"><g><path d="M 23.703125 -0.015625 C 24.890625 1.179688 25.566406 2.46875 25.734375 3.84375 C 25.910156 5.21875 25.539062 6.609375 24.625 8.015625 C 23.457031 9.816406 21.894531 10.769531 19.9375 10.875 C 17.976562 10.988281 15.695312 10.195312 13.09375 8.5 L 3.421875 2.21875 L 17.078125 -18.796875 L 26.140625 -12.90625 C 28.484375 -11.382812 29.992188 -9.734375 30.671875 -7.953125 C 31.347656 -6.171875 31.128906 -4.421875 30.015625 -2.703125 C 29.253906 -1.535156 28.328125 -0.734375 27.234375 -0.296875 C 26.140625 0.140625 24.960938 0.234375 23.703125 -0.015625 Z M 18.09375 -15.515625 L 13.140625 -7.890625 L 19.84375 -3.546875 C 21.539062 -2.441406 23.0625 -1.914062 24.40625 -1.96875 C 25.757812 -2.019531 26.835938 -2.664062 27.640625 -3.90625 C 28.441406 -5.144531 28.59375 -6.390625 28.09375 -7.640625 C 27.59375 -8.890625 26.492188 -10.066406 24.796875 -11.171875 Z M 14.25 6.65625 C 16.125 7.875 17.75 8.472656 19.125 8.453125 C 20.507812 8.441406 21.644531 7.753906 22.53125 6.390625 C 24.226562 3.773438 23.175781 1.234375 19.375 -1.234375 L 11.953125 -6.046875 L 6.828125 1.84375 Z M 14.25 6.65625 "/></g></g></g><g fill="#000000" fill-opacity="1"><g transform="translate(558.835944, 194.035412)"><g><path d="M 18.3125 -17.578125 L 20.4375 -15.984375 L 5.390625 4.046875 L 3.265625 2.453125 Z M 18.3125 -17.578125 "/></g></g></g><g fill="#000000" fill-opacity="1"><g transform="translate(567.005935, 199.768102)"><g><path d="M 24.625 4.765625 L 26.546875 6.421875 L 20.28125 13.640625 C 18.726562 13.640625 17.164062 13.328125 15.59375 12.703125 C 14.03125 12.078125 12.582031 11.191406 11.25 10.046875 C 9.351562 8.398438 8.003906 6.503906 7.203125 4.359375 C 6.410156 2.210938 6.21875 0.03125 6.625 -2.1875 C 7.03125 -4.40625 8.023438 -6.425781 9.609375 -8.25 C 11.179688 -10.070312 13.035156 -11.34375 15.171875 -12.0625 C 17.316406 -12.789062 19.503906 -12.910156 21.734375 -12.421875 C 23.972656 -11.929688 26.050781 -10.859375 27.96875 -9.203125 C 29.40625 -7.953125 30.53125 -6.578125 31.34375 -5.078125 C 32.15625 -3.578125 32.582031 -2.015625 32.625 -0.390625 L 30.28125 -0.1875 C 30.070312 -2.957031 28.8125 -5.34375 26.5 -7.34375 C 24.96875 -8.675781 23.285156 -9.539062 21.453125 -9.9375 C 19.628906 -10.332031 17.847656 -10.234375 16.109375 -9.640625 C 14.367188 -9.054688 12.859375 -8.023438 11.578125 -6.546875 C 10.296875 -5.066406 9.488281 -3.425781 9.15625 -1.625 C 8.832031 0.164062 8.988281 1.9375 9.625 3.6875 C 10.257812 5.445312 11.34375 6.988281 12.875 8.3125 C 14.820312 10 16.894531 10.945312 19.09375 11.15625 Z M 24.625 4.765625 "/></g></g></g><g fill="#000000" fill-opacity="1"><g transform="translate(587.110318, 217.55286)"><g/></g></g><g fill="#000000" fill-opacity="1"><g transform="translate(593.482338, 223.855066)"><g/></g></g><g fill="#000000" fill-opacity="1"><g transform="translate(599.590764, 230.040537)"><g><path d="M 6.90625 8.546875 C 5.707031 7.128906 4.785156 5.570312 4.140625 3.875 C 3.503906 2.1875 3.265625 0.671875 3.421875 -0.671875 L 5.640625 -1.1875 C 5.523438 0.09375 5.738281 1.488281 6.28125 3 C 6.820312 4.507812 7.609375 5.875 8.640625 7.09375 C 10.085938 8.8125 11.484375 9.832031 12.828125 10.15625 C 14.179688 10.488281 15.363281 10.234375 16.375 9.390625 C 17.132812 8.742188 17.546875 7.992188 17.609375 7.140625 C 17.671875 6.296875 17.539062 5.429688 17.21875 4.546875 C 16.90625 3.671875 16.382812 2.503906 15.65625 1.046875 C 14.8125 -0.710938 14.195312 -2.160156 13.8125 -3.296875 C 13.425781 -4.441406 13.320312 -5.613281 13.5 -6.8125 C 13.6875 -8.007812 14.375 -9.101562 15.5625 -10.09375 C 16.53125 -10.90625 17.625 -11.390625 18.84375 -11.546875 C 20.0625 -11.710938 21.351562 -11.460938 22.71875 -10.796875 C 24.082031 -10.128906 25.425781 -9.007812 26.75 -7.4375 C 27.664062 -6.351562 28.414062 -5.160156 29 -3.859375 C 29.59375 -2.554688 29.945312 -1.296875 30.0625 -0.078125 L 27.859375 0.59375 C 27.722656 -0.65625 27.398438 -1.84375 26.890625 -2.96875 C 26.390625 -4.101562 25.769531 -5.109375 25.03125 -5.984375 C 23.613281 -7.671875 22.222656 -8.664062 20.859375 -8.96875 C 19.492188 -9.269531 18.300781 -8.992188 17.28125 -8.140625 C 16.519531 -7.492188 16.101562 -6.738281 16.03125 -5.875 C 15.957031 -5.019531 16.09375 -4.140625 16.4375 -3.234375 C 16.78125 -2.328125 17.304688 -1.160156 18.015625 0.265625 C 18.847656 1.972656 19.457031 3.398438 19.84375 4.546875 C 20.238281 5.703125 20.347656 6.867188 20.171875 8.046875 C 19.992188 9.222656 19.320312 10.300781 18.15625 11.28125 C 17.1875 12.101562 16.085938 12.585938 14.859375 12.734375 C 13.628906 12.890625 12.320312 12.625 10.9375 11.9375 C 9.5625 11.25 8.21875 10.117188 6.90625 8.546875 Z M 6.90625 8.546875 "/></g></g></g><g fill="#000000" fill-opacity="1"><g transform="translate(613.224613, 245.866017)"><g><path d="M 8.375 12.484375 C 6.957031 10.441406 6.132812 8.273438 5.90625 5.984375 C 5.675781 3.703125 6.03125 1.546875 6.96875 -0.484375 C 7.914062 -2.515625 9.378906 -4.222656 11.359375 -5.609375 C 13.335938 -6.972656 15.441406 -7.738281 17.671875 -7.90625 C 19.910156 -8.070312 22.054688 -7.640625 24.109375 -6.609375 C 26.171875 -5.585938 27.910156 -4.054688 29.328125 -2.015625 C 30.734375 0.0234375 31.554688 2.175781 31.796875 4.4375 C 32.035156 6.695312 31.675781 8.847656 30.71875 10.890625 C 29.769531 12.941406 28.304688 14.648438 26.328125 16.015625 C 24.347656 17.398438 22.234375 18.175781 19.984375 18.34375 C 17.734375 18.507812 15.585938 18.082031 13.546875 17.0625 C 11.503906 16.050781 9.78125 14.523438 8.375 12.484375 Z M 10.328125 11.140625 C 11.453125 12.765625 12.835938 13.976562 14.484375 14.78125 C 16.128906 15.59375 17.863281 15.914062 19.6875 15.75 C 21.507812 15.59375 23.222656 14.957031 24.828125 13.84375 C 26.441406 12.726562 27.640625 11.347656 28.421875 9.703125 C 29.210938 8.054688 29.519531 6.320312 29.34375 4.5 C 29.164062 2.675781 28.515625 0.953125 27.390625 -0.671875 C 26.253906 -2.296875 24.863281 -3.515625 23.21875 -4.328125 C 21.570312 -5.148438 19.832031 -5.488281 18 -5.34375 C 16.175781 -5.207031 14.457031 -4.582031 12.84375 -3.46875 C 11.238281 -2.351562 10.046875 -0.960938 9.265625 0.703125 C 8.484375 2.367188 8.179688 4.117188 8.359375 5.953125 C 8.535156 7.785156 9.191406 9.515625 10.328125 11.140625 Z M 10.328125 11.140625 "/></g></g></g><g fill="#000000" fill-opacity="1"><g transform="translate(629.561036, 269.67312)"><g><path d="M 23.15625 -5.25 L 14.578125 -0.4375 L 20.90625 10.859375 L 18.890625 11.984375 L 12.5625 0.6875 L 3.296875 5.875 L 2 3.5625 L 23.875 -8.6875 L 32.265625 6.3125 L 30.25 7.4375 Z M 23.15625 -5.25 "/></g></g></g><g fill="#000000" fill-opacity="1"><g transform="translate(640.164959, 288.615175)"><g><path d="M 24.421875 -1.421875 L 20.734375 -9.421875 L 22.8125 -10.375 L 31.296875 8.03125 L 29.21875 8.984375 L 25.53125 0.984375 L 4.859375 10.53125 L 3.75 8.125 Z M 24.421875 -1.421875 "/></g></g></g><g fill="#000000" fill-opacity="1"><g transform="translate(648.778179, 305.860575)"><g><path d="M 36 28.515625 L 9.546875 28.46875 L 8.65625 25.828125 L 26.59375 12.078125 L 3.984375 11.875 L 3.109375 9.265625 L 24.1875 -6.703125 L 25.046875 -4.125 L 6.921875 9.578125 L 29.71875 9.8125 L 30.515625 12.15625 L 12.328125 26.046875 L 35.1875 26.109375 Z M 36 28.515625 "/></g></g></g><g fill="#000000" fill-opacity="1"><g transform="translate(660.647785, 342.306619)"><g><path d="M 10.578125 18.015625 L 7.734375 4.34375 L 0.578125 2.765625 L 0.015625 0.078125 L 26.875 6.171875 L 27.421875 8.734375 L 5.21875 25.0625 L 4.65625 22.3125 Z M 12.5 16.640625 L 24.4375 8 L 10.046875 4.859375 Z M 12.5 16.640625 "/></g></g></g><g fill="#000000" fill-opacity="1"><g transform="translate(665.707881, 366.318527)"><g><path d="M 2.375 21.046875 L 9.734375 14.46875 C 9.597656 13.832031 9.488281 13.171875 9.40625 12.484375 L 8.65625 5.796875 L 0.75 6.6875 L 0.453125 4.046875 L 25.359375 1.234375 L 26.40625 10.5625 C 26.769531 13.738281 26.289062 16.3125 24.96875 18.28125 C 23.65625 20.257812 21.671875 21.398438 19.015625 21.703125 C 17.078125 21.921875 15.378906 21.613281 13.921875 20.78125 C 12.472656 19.945312 11.351562 18.648438 10.5625 16.890625 L 2.703125 23.9375 Z M 11.640625 12.171875 C 11.921875 14.628906 12.679688 16.445312 13.921875 17.625 C 15.160156 18.8125 16.757812 19.296875 18.71875 19.078125 C 20.738281 18.847656 22.210938 18.019531 23.140625 16.59375 C 24.078125 15.164062 24.40625 13.222656 24.125 10.765625 L 23.375 4.140625 L 10.890625 5.546875 Z M 11.640625 12.171875 "/></g></g></g><g fill="#000000" fill-opacity="1"><g transform="translate(668.49159, 390.949732)"><g><path d="M 2.78125 21.75 L 0.484375 21.796875 L 0.09375 4.078125 L 25.15625 3.515625 L 25.53125 20.703125 L 23.234375 20.75 L 22.921875 6.21875 L 14.015625 6.421875 L 14.296875 19.375 L 12.03125 19.421875 L 11.75 6.46875 L 2.453125 6.6875 Z M 2.78125 21.75 "/></g></g></g><g fill="#000000" fill-opacity="1"><g transform="translate(668.81308, 414.15177)"><g/></g></g><g fill="#000000" fill-opacity="1"><g transform="translate(668.481145, 423.107808)"><g/></g></g><g fill="#000000" fill-opacity="1"><g transform="translate(667.846231, 432.047493)"><g/></g></g><g fill="#000000" fill-opacity="1"><g transform="translate(667.127901, 440.710957)"><g><path d="M -2 10.8125 C -1.695312 8.976562 -1.109375 7.265625 -0.234375 5.671875 C 0.628906 4.078125 1.617188 2.910156 2.734375 2.171875 L 4.578125 3.515625 C 3.535156 4.253906 2.613281 5.320312 1.8125 6.71875 C 1.019531 8.113281 0.492188 9.597656 0.234375 11.171875 C -0.117188 13.390625 0.015625 15.117188 0.640625 16.359375 C 1.273438 17.597656 2.242188 18.320312 3.546875 18.53125 C 4.523438 18.695312 5.359375 18.523438 6.046875 18.015625 C 6.734375 17.515625 7.304688 16.851562 7.765625 16.03125 C 8.222656 15.21875 8.769531 14.0625 9.40625 12.5625 C 10.1875 10.769531 10.882812 9.359375 11.5 8.328125 C 12.125 7.296875 12.941406 6.457031 13.953125 5.8125 C 14.972656 5.175781 16.253906 4.984375 17.796875 5.234375 C 19.035156 5.441406 20.113281 5.957031 21.03125 6.78125 C 21.945312 7.601562 22.597656 8.75 22.984375 10.21875 C 23.378906 11.6875 23.410156 13.429688 23.078125 15.453125 C 22.847656 16.867188 22.425781 18.222656 21.8125 19.515625 C 21.207031 20.804688 20.476562 21.890625 19.625 22.765625 L 17.6875 21.546875 C 18.550781 20.617188 19.25 19.59375 19.78125 18.46875 C 20.3125 17.351562 20.671875 16.226562 20.859375 15.09375 C 21.210938 12.925781 21.054688 11.226562 20.390625 10 C 19.734375 8.769531 18.742188 8.046875 17.421875 7.828125 C 16.441406 7.660156 15.597656 7.828125 14.890625 8.328125 C 14.191406 8.835938 13.609375 9.519531 13.140625 10.375 C 12.679688 11.226562 12.144531 12.390625 11.53125 13.859375 C 10.769531 15.597656 10.078125 16.988281 9.453125 18.03125 C 8.835938 19.082031 8.023438 19.921875 7.015625 20.546875 C 6.015625 21.179688 4.757812 21.375 3.25 21.125 C 2 20.925781 0.914062 20.410156 0 19.578125 C -0.90625 18.742188 -1.546875 17.578125 -1.921875 16.078125 C -2.296875 14.585938 -2.320312 12.832031 -2 10.8125 Z M -2 10.8125 "/></g></g></g><g fill="#000000" fill-opacity="1"><g transform="translate(663.99199, 461.362526)"><g><path d="M -4.03125 14.484375 C -3.394531 12.078125 -2.28125 10.039062 -0.6875 8.375 C 0.894531 6.707031 2.757812 5.566406 4.90625 4.953125 C 7.0625 4.347656 9.3125 4.351562 11.65625 4.96875 C 13.976562 5.582031 15.929688 6.679688 17.515625 8.265625 C 19.097656 9.859375 20.171875 11.769531 20.734375 14 C 21.296875 16.226562 21.257812 18.546875 20.625 20.953125 C 20 23.347656 18.90625 25.367188 17.34375 27.015625 C 15.78125 28.671875 13.910156 29.804688 11.734375 30.421875 C 9.554688 31.035156 7.304688 31.035156 4.984375 30.421875 C 2.640625 29.804688 0.675781 28.695312 -0.90625 27.09375 C -2.488281 25.5 -3.5625 23.597656 -4.125 21.390625 C -4.6875 19.179688 -4.65625 16.878906 -4.03125 14.484375 Z M -1.734375 15.09375 C -2.234375 17 -2.253906 18.835938 -1.796875 20.609375 C -1.335938 22.378906 -0.457031 23.90625 0.84375 25.1875 C 2.15625 26.476562 3.757812 27.367188 5.65625 27.859375 C 7.550781 28.359375 9.378906 28.367188 11.140625 27.890625 C 12.898438 27.410156 14.414062 26.507812 15.6875 25.1875 C 16.957031 23.875 17.84375 22.265625 18.34375 20.359375 C 18.84375 18.441406 18.863281 16.585938 18.40625 14.796875 C 17.957031 13.015625 17.082031 11.476562 15.78125 10.1875 C 14.488281 8.894531 12.894531 8 11 7.5 C 9.101562 7.007812 7.269531 7.003906 5.5 7.484375 C 3.726562 7.972656 2.203125 8.882812 0.921875 10.21875 C -0.347656 11.550781 -1.234375 13.175781 -1.734375 15.09375 Z M -1.734375 15.09375 "/></g></g></g><g fill="#000000" fill-opacity="1"><g transform="translate(656.515849, 489.284334)"><g><path d="M 22.171875 12.390625 L 21.265625 14.890625 L -0.140625 7.109375 L -4.9375 20.296875 L -7.09375 19.515625 L -1.390625 3.828125 Z M 22.171875 12.390625 "/></g></g></g><g fill="#000000" fill-opacity="1"><g transform="translate(649.879657, 508.162691)"><g><path d="M -6.21875 12.734375 C -4.84375 9.804688 -2.921875 7.914062 -0.453125 7.0625 C 2.003906 6.207031 4.835938 6.53125 8.046875 8.03125 L 21.0625 14.125 L 19.9375 16.53125 L 7.03125 10.484375 C 4.382812 9.253906 2.132812 8.925781 0.28125 9.5 C -1.570312 10.082031 -3.023438 11.492188 -4.078125 13.734375 C -5.140625 16.015625 -5.300781 18.050781 -4.5625 19.84375 C -3.820312 21.644531 -2.128906 23.160156 0.515625 24.390625 L 13.421875 30.4375 L 12.34375 32.765625 L -0.671875 26.671875 C -3.878906 25.171875 -5.945312 23.207031 -6.875 20.78125 C -7.8125 18.363281 -7.59375 15.679688 -6.21875 12.734375 Z M -6.21875 12.734375 "/></g></g></g><g fill="#000000" fill-opacity="1"><g transform="translate(638.204502, 532.808973)"><g><path d="M 15.1875 19.1875 L 19.609375 11.5625 L 21.59375 12.703125 L 11.421875 30.21875 L 9.4375 29.078125 L 13.859375 21.46875 L -5.828125 10.03125 L -4.5 7.75 Z M 15.1875 19.1875 "/></g></g></g><g fill="#000000" fill-opacity="1"><g transform="translate(628.137492, 549.915252)"><g><path d="M 18.671875 17.203125 L 17.21875 19.421875 L -3.703125 5.625 L -2.25 3.40625 Z M 18.671875 17.203125 "/></g></g></g><g fill="#000000" fill-opacity="1"><g transform="translate(622.998444, 558.416931)"><g><path d="M -9.34375 11.765625 C -7.832031 9.804688 -6.019531 8.363281 -3.90625 7.4375 C -1.800781 6.519531 0.359375 6.203125 2.578125 6.484375 C 4.804688 6.765625 6.875 7.640625 8.78125 9.109375 C 10.6875 10.578125 12.054688 12.351562 12.890625 14.4375 C 13.734375 16.519531 13.976562 18.695312 13.625 20.96875 C 13.28125 23.25 12.351562 25.367188 10.84375 27.328125 C 9.332031 29.296875 7.535156 30.734375 5.453125 31.640625 C 3.367188 32.554688 1.207031 32.867188 -1.03125 32.578125 C -3.28125 32.296875 -5.359375 31.421875 -7.265625 29.953125 C -9.171875 28.484375 -10.546875 26.703125 -11.390625 24.609375 C -12.234375 22.515625 -12.476562 20.34375 -12.125 18.09375 C -11.78125 15.84375 -10.851562 13.734375 -9.34375 11.765625 Z M -7.46875 13.21875 C -8.675781 14.789062 -9.410156 16.484375 -9.671875 18.296875 C -9.941406 20.109375 -9.726562 21.859375 -9.03125 23.546875 C -8.332031 25.234375 -7.207031 26.671875 -5.65625 27.859375 C -4.101562 29.054688 -2.421875 29.78125 -0.609375 30.03125 C 1.203125 30.28125 2.945312 30.046875 4.625 29.328125 C 6.3125 28.609375 7.757812 27.460938 8.96875 25.890625 C 10.175781 24.328125 10.914062 22.632812 11.1875 20.8125 C 11.457031 18.988281 11.242188 17.226562 10.546875 15.53125 C 9.859375 13.832031 8.738281 12.382812 7.1875 11.1875 C 5.632812 10 3.945312 9.285156 2.125 9.046875 C 0.3125 8.804688 -1.4375 9.050781 -3.125 9.78125 C -4.8125 10.507812 -6.257812 11.65625 -7.46875 13.21875 Z M -7.46875 13.21875 "/></g></g></g><g fill="#000000" fill-opacity="1"><g transform="translate(605.486884, 581.214543)"><g><path d="M 0.8125 35.40625 L -17.296875 18.078125 L -15.796875 16.5 L 10.03125 18.90625 L -4.65625 4.859375 L -2.8125 2.953125 L 15.296875 20.28125 L 13.78125 21.859375 L -12.078125 19.453125 L 2.625 33.515625 Z M 0.8125 35.40625 "/></g></g></g><g fill="#000000" fill-opacity="1"><g transform="translate(586.070622, 601.354686)"><g><path d="M -8.4375 7.03125 C -7.03125 5.8125 -5.488281 4.867188 -3.8125 4.203125 C -2.132812 3.535156 -0.625 3.269531 0.71875 3.40625 L 1.28125 5.609375 C 0 5.523438 -1.390625 5.765625 -2.890625 6.328125 C -4.390625 6.898438 -5.742188 7.707031 -6.953125 8.75 C -8.648438 10.226562 -9.648438 11.644531 -9.953125 13 C -10.253906 14.351562 -9.976562 15.523438 -9.125 16.515625 C -8.46875 17.273438 -7.710938 17.675781 -6.859375 17.71875 C -6.015625 17.769531 -5.148438 17.628906 -4.265625 17.296875 C -3.390625 16.960938 -2.226562 16.421875 -0.78125 15.671875 C 0.945312 14.796875 2.378906 14.15625 3.515625 13.75 C 4.660156 13.351562 5.828125 13.234375 7.015625 13.390625 C 8.210938 13.554688 9.320312 14.222656 10.34375 15.390625 C 11.164062 16.347656 11.660156 17.4375 11.828125 18.65625 C 12.003906 19.875 11.773438 21.171875 11.140625 22.546875 C 10.503906 23.929688 9.410156 25.296875 7.859375 26.640625 C 6.773438 27.578125 5.585938 28.347656 4.296875 28.953125 C 3.003906 29.554688 1.753906 29.921875 0.546875 30.046875 L -0.15625 27.890625 C 1.09375 27.710938 2.28125 27.363281 3.40625 26.84375 C 4.53125 26.320312 5.523438 25.6875 6.390625 24.9375 C 8.046875 23.5 9.015625 22.09375 9.296875 20.71875 C 9.578125 19.351562 9.28125 18.164062 8.40625 17.15625 C 7.75 16.40625 6.988281 16 6.125 15.9375 C 5.269531 15.875 4.390625 16.019531 3.484375 16.375 C 2.585938 16.738281 1.425781 17.289062 0 18.03125 C -1.6875 18.875 -3.097656 19.5 -4.234375 19.90625 C -5.378906 20.320312 -6.539062 20.445312 -7.71875 20.28125 C -8.90625 20.125 -10 19.472656 -11 18.328125 C -11.832031 17.367188 -12.332031 16.273438 -12.5 15.046875 C -12.664062 13.828125 -12.414062 12.519531 -11.75 11.125 C -11.082031 9.738281 -9.976562 8.375 -8.4375 7.03125 Z M -8.4375 7.03125 "/></g></g></g><g fill="#000000" fill-opacity="1"><g transform="translate(569.8762, 615.213254)"><g/></g></g><g fill="#000000" fill-opacity="1"><g transform="translate(563.233712, 620.707399)"><g><path d="M 2.90625 28.296875 C 0.257812 30.085938 -2.238281 30.859375 -4.59375 30.609375 C -6.957031 30.367188 -8.890625 29.144531 -10.390625 26.9375 C -11.890625 24.71875 -12.3125 22.46875 -11.65625 20.1875 C -11 17.914062 -9.347656 15.882812 -6.703125 14.09375 L -1.140625 10.328125 L -5.578125 3.78125 L -3.375 2.28125 L 10.671875 23.03125 Z M -5.359375 15.984375 C -7.410156 17.367188 -8.671875 18.878906 -9.140625 20.515625 C -9.617188 22.148438 -9.300781 23.789062 -8.1875 25.4375 C -7.050781 27.113281 -5.632812 28.03125 -3.9375 28.1875 C -2.25 28.351562 -0.378906 27.742188 1.671875 26.359375 L 7.1875 22.625 L 0.15625 12.25 Z M -5.359375 15.984375 "/></g></g></g><g fill="#000000" fill-opacity="1"><g transform="translate(542.890995, 634.525413)"><g><path d="M -9.734375 33.984375 L -12.09375 6.671875 L -9.8125 5.40625 L 12 22 L 9.5 23.390625 L -9.40625 8.953125 L -7.375 32.6875 Z M -9.734375 33.984375 "/></g></g></g><g fill="#000000" fill-opacity="1"><g transform="translate(521.861862, 646.05675)"><g><path d="M 1.140625 24.421875 L 9.1875 20.828125 L 10.125 22.9375 L -8.375 31.21875 L -9.3125 29.109375 L -1.265625 25.515625 L -10.578125 4.75 L -8.171875 3.65625 Z M 1.140625 24.421875 "/></g></g></g><g fill="#000000" fill-opacity="1"><g transform="translate(503.67255, 654.072483)"><g/></g></g><g fill="#000000" fill-opacity="1"><g transform="translate(495.604369, 657.366881)"><g><path d="M 3.828125 25.09375 L 1.296875 25.90625 L -5.703125 4.25 L -19.0625 8.578125 L -19.765625 6.390625 L -3.875 1.25 Z M 3.828125 25.09375 "/></g></g></g><g fill="#000000" fill-opacity="1"><g transform="translate(476.41966, 663.589234)"><g><path d="M -3.34375 24.234375 L 5.21875 22.15625 L 5.75 24.390625 L -13.9375 29.15625 L -14.46875 26.921875 L -5.90625 24.84375 L -11.265625 2.71875 L -8.703125 2.109375 Z M -3.34375 24.234375 "/></g></g></g><g fill="#000000" fill-opacity="1"><g transform="translate(457.566399, 668.412425)"><g><path d="M -0.359375 25.390625 L -10.453125 26.890625 C -13.066406 27.273438 -15.457031 27.085938 -17.625 26.328125 C -19.789062 25.578125 -21.566406 24.34375 -22.953125 22.625 C -24.335938 20.914062 -25.210938 18.851562 -25.578125 16.4375 C -25.929688 14.03125 -25.691406 11.804688 -24.859375 9.765625 C -24.023438 7.734375 -22.679688 6.039062 -20.828125 4.6875 C -18.972656 3.34375 -16.738281 2.476562 -14.125 2.09375 L -4.03125 0.59375 Z M -13.640625 4.328125 C -15.816406 4.648438 -17.65625 5.363281 -19.15625 6.46875 C -20.664062 7.582031 -21.753906 8.960938 -22.421875 10.609375 C -23.097656 12.253906 -23.289062 14.070312 -23 16.0625 C -22.707031 18.039062 -22 19.726562 -20.875 21.125 C -19.75 22.519531 -18.304688 23.523438 -16.546875 24.140625 C -14.796875 24.753906 -12.832031 24.898438 -10.65625 24.578125 L -3.328125 23.5 L -6.3125 3.25 Z M -13.640625 4.328125 "/></g></g></g><g fill="#000000" fill-opacity="1"><g transform="translate(384.50307, 540.729806)"><g><path d="M 9 -180.0625 L 80.671875 -180.0625 C 82.953125 -180.0625 86.3125 -179.941406 90.75 -179.703125 C 95.1875 -179.460938 100.046875 -178.738281 105.328125 -177.53125 C 110.617188 -176.332031 115.664062 -174.351562 120.46875 -171.59375 C 125.269531 -168.832031 129.226562 -164.960938 132.34375 -159.984375 C 135.46875 -155.003906 137.03125 -148.613281 137.03125 -140.8125 C 137.03125 -134.925781 135.347656 -129.429688 131.984375 -124.328125 C 128.617188 -119.234375 123.9375 -114.820312 117.9375 -111.09375 C 111.9375 -107.375 104.972656 -104.492188 97.046875 -102.453125 C 103.171875 -101.367188 109.203125 -99.71875 115.140625 -97.5 C 121.085938 -95.28125 126.488281 -92.28125 131.34375 -88.5 C 136.207031 -84.71875 140.082031 -79.914062 142.96875 -74.09375 C 145.851562 -68.269531 147.296875 -61.21875 147.296875 -52.9375 C 147.296875 -44.65625 145.914062 -37.515625 143.15625 -31.515625 C 140.394531 -25.515625 136.789062 -20.472656 132.34375 -16.390625 C 127.90625 -12.304688 123.046875 -9.0625 117.765625 -6.65625 C 112.484375 -4.257812 107.226562 -2.550781 102 -1.53125 C 96.78125 -0.507812 92.070312 0 87.875 0 L 9 0 L 9 -1.4375 C 15 -2.394531 18.8125 -6.207031 20.4375 -12.875 C 22.0625 -19.539062 22.875 -28.992188 22.875 -41.234375 C 22.875 -57.554688 22.875 -73.820312 22.875 -90.03125 C 22.875 -106.238281 22.875 -122.503906 22.875 -138.828125 C 22.875 -151.066406 22.0625 -160.546875 20.4375 -167.265625 C 18.8125 -173.992188 15 -177.78125 9 -178.625 Z M 69.328125 -99.390625 L 44.65625 -99.390625 L 44.65625 -5.40625 L 72.75 -5.40625 C 89.1875 -5.40625 101.96875 -9.363281 111.09375 -17.28125 C 120.21875 -25.207031 124.78125 -37.09375 124.78125 -52.9375 C 124.78125 -56.0625 124.445312 -59.632812 123.78125 -63.65625 C 123.125 -67.675781 121.804688 -71.753906 119.828125 -75.890625 C 117.847656 -80.035156 114.847656 -83.847656 110.828125 -87.328125 C 106.804688 -90.804688 101.429688 -93.65625 94.703125 -95.875 C 87.984375 -98.101562 79.523438 -99.273438 69.328125 -99.390625 Z M 74.546875 -104.796875 C 86.546875 -104.796875 96.207031 -107.851562 103.53125 -113.96875 C 110.851562 -120.09375 114.515625 -128.921875 114.515625 -140.453125 C 114.515625 -151.128906 111.125 -159.53125 104.34375 -165.65625 C 97.5625 -171.78125 87.8125 -174.84375 75.09375 -174.84375 L 44.65625 -174.84375 L 44.65625 -104.796875 Z M 74.546875 -104.796875 "/></g></g></g><g fill="#000000" fill-opacity="1"><g transform="translate(258.828857, 508.087962)"><g><path d="M 13.359375 -178.984375 L 11.515625 -178.984375 L 11.515625 -234.953125 L 13.359375 -234.953125 C 15.046875 -233.109375 18.15625 -231.878906 22.6875 -231.265625 C 27.21875 -230.648438 31.171875 -230.34375 34.546875 -230.34375 L 145.109375 -230.34375 C 148.492188 -230.34375 152.453125 -230.648438 156.984375 -231.265625 C 161.515625 -231.878906 164.625 -233.109375 166.3125 -234.953125 L 168.15625 -234.953125 L 168.15625 -178.984375 L 166.3125 -178.984375 C 165.238281 -187.273438 162.816406 -194.757812 159.046875 -201.4375 C 155.285156 -208.113281 149.988281 -213.445312 143.15625 -217.4375 C 136.320312 -221.4375 127.609375 -223.4375 117.015625 -223.4375 L 102.734375 -223.4375 L 102.734375 -115.171875 C 102.734375 -107.492188 102.734375 -101.773438 102.734375 -98.015625 C 102.734375 -94.253906 102.734375 -91.601562 102.734375 -90.0625 C 102.734375 -88.53125 102.769531 -87.300781 102.84375 -86.375 C 102.925781 -85.457031 102.96875 -84.035156 102.96875 -82.109375 C 102.96875 -80.191406 102.96875 -77.003906 102.96875 -72.546875 C 102.96875 -68.097656 102.96875 -61.5 102.96875 -52.75 C 102.96875 -37.082031 104.003906 -24.988281 106.078125 -16.46875 C 108.148438 -7.945312 113.023438 -3.070312 120.703125 -1.84375 L 120.703125 0 L 57.125 0 L 57.125 -1.84375 C 64.800781 -3.070312 69.675781 -7.945312 71.75 -16.46875 C 73.820312 -24.988281 74.859375 -37.082031 74.859375 -52.75 C 74.859375 -61.5 74.859375 -68.097656 74.859375 -72.546875 C 74.859375 -77.003906 74.859375 -80.191406 74.859375 -82.109375 C 74.859375 -84.035156 74.894531 -85.457031 74.96875 -86.375 C 75.050781 -87.300781 75.09375 -88.53125 75.09375 -90.0625 C 75.09375 -91.601562 75.09375 -94.253906 75.09375 -98.015625 C 75.09375 -101.773438 75.09375 -107.492188 75.09375 -115.171875 L 75.09375 -223.4375 L 62.65625 -223.4375 C 52.0625 -223.4375 43.347656 -221.4375 36.515625 -217.4375 C 29.679688 -213.445312 24.421875 -208.113281 20.734375 -201.4375 C 17.046875 -194.757812 14.585938 -187.273438 13.359375 -178.984375 Z M 13.359375 -178.984375 "/></g></g></g></svg>